<svg xmlns="http://www.w3.org/2000/svg" viewBox="0 0 256 256" role="img" aria-labelledby="title desc">
  <title id="title">AnyCode</title>
  <desc id="desc">The letters A and C joined by a branching workflow</desc>
  <defs>
    <linearGradient id="graphite" gradientUnits="userSpaceOnUse" x1="20" y1="40" x2="220" y2="210">
      <stop offset="0" stop-color="#20272C"/>
      <stop offset="1" stop-color="#30383E"/>
    </linearGradient>
    <linearGradient id="teal" gradientUnits="userSpaceOnUse" x1="40" y1="50" x2="220" y2="200">
      <stop offset="0" stop-color="#07858F"/>
      <stop offset="1" stop-color="#0799A1"/>
    </linearGradient>
    <linearGradient id="amber" x1="0" y1="0" x2="1" y2="1">
      <stop offset="0" stop-color="#F5A70B"/>
      <stop offset="1" stop-color="#E99708"/>
    </linearGradient>
  </defs>
  <path
    d="m60 140h34"
    fill="none"
    stroke="url(#teal)"
    stroke-width="10"
    stroke-linecap="butt"
    stroke-linejoin="round"
  />
  <path
    d="M15 196 88 51l35 65-1 24-8 5-26-47-44 98Z"
    fill="url(#graphite)"
  />
  <path
    d="M221 73a64 64 0 1 0 1 101"
    fill="none"
    stroke="url(#teal)"
    stroke-width="23"
    stroke-linecap="butt"
  />
  <path
    d="M118 124a64 64 0 0 0 64 64"
    fill="none"
    stroke="url(#graphite)"
    stroke-width="23"
    stroke-linecap="butt"
  />
  <path
    d="m90 140h6l22-16"
    fill="none"
    stroke="url(#teal)"
    stroke-width="10"
    stroke-linecap="butt"
    stroke-linejoin="round"
  />
  <path
    d="m118 124 51-32m-51 32h60m-60 0 51 32"
    fill="none"
    stroke="url(#teal)"
    stroke-width="10"
    stroke-linecap="butt"
    stroke-linejoin="round"
  />
  <circle cx="118" cy="124" r="10" fill="url(#teal)" stroke="#F7F6F2" stroke-width="3"/>
  <circle cx="169" cy="92" r="10" fill="url(#amber)"/>
  <circle cx="178" cy="124" r="10" fill="url(#amber)"/>
  <circle cx="169" cy="156" r="10" fill="url(#amber)"/>
</svg>
